<svg xmlns="http://www.w3.org/2000/svg" width="0" height="0">
	<svg id="icon-bold" viewBox="0 0 500 500">
		<path fill="#333" d="M206.542,432.292c12.833,5.541,26.833,9.333,40.833,9.333c66.5,0,109.667-26.542,109.667-97.708 c0-18.084-2.334-37.042-11.959-52.5c-27.125-43.75-66.208-46.083-113.167-46.083c-8.75,0-21.292,0-29.458,2.917 c0,30.917-0.292,61.833-0.292,92.458C202.167,360.833,199.542,415.375,206.542,432.292z M202.458,214.708 c10.5,1.75,21.292,2.042,31.792,2.042c60.083,0,102.958-16.917,102.958-84.292c0-56.875-50.458-76.417-99.167-76.417 c-12.833,0-25.375,1.75-37.917,3.792c0,29.458,2.333,58.917,2.333,88.375c0,15.458-0.292,30.917-0.292,46.375 C202.167,201.292,202.167,208,202.458,214.708z M44.667,474l0.583-27.417c18.667-4.666,37.625-4.958,55.708-12.541 c10.208-17.209,8.75-47.542,8.75-67.084c0-6.416,0.583-285.25-6.417-298.958c-4.375-8.458-47.25-10.5-56.875-11.667L45.25,32.125 C114.667,30.958,184.083,26,253.208,26c13.125,0,26.542,0.292,39.667,0.292c65.917,0,138.542,31.5,138.542,107.333 c0,52.208-39.667,71.75-80.792,90.417c55.417,12.542,104.708,50.167,104.708,111.417c0,100.334-91.291,133.584-176.75,133.584 c-25.666,0-51.333-1.75-77-1.75C149.375,467.292,96.583,471.958,44.667,474z"/>
	</svg>

	<svg id="icon-italic" viewBox="0 0 500 500">
		<path fill="#333" d="M106,465.438l4.781-23.906c18-5.625,37.406-7.875,54.281-16.594c6.469-8.156,9.562-18.562,11.531-28.406 C180.25,377.406,241.562,101.5,240.719,79v-7.031c-15.469-8.438-34.312-6.188-51.188-9L194.875,34 c36.281,1.688,73.125,4.5,109.688,4.5c29.812,0,59.625-2.812,89.438-4.5c-1.125,8.438-3.094,16.875-5.344,25.031 c-19.406,6.75-39.938,9.844-59.062,17.438c-6.188,15.188-7.594,31.781-10.406,47.812c-13.5,72.844-31.5,145.688-46.406,217.969 c-2.812,13.5-16.594,69.469-15.469,81.281l0.281,5.062c17.156,3.938,34.594,5.906,52.031,8.719c-0.562,9.281-2.25,18.562-4.5,27.844 c-6.188,0-12.094,0.844-18.281,0.844c-16.031,0-32.625-5.344-48.656-5.625c-19.406-0.281-38.812-0.562-57.938-0.562 C155.219,459.812,130.75,464.031,106,465.438z"/>
	</svg>

	<svg id="icon-underline" viewBox="0 0 500 500">
		<path fill="#333" d="M52.188,65.1c-4.945-0.274-9.066-0.274-12.363-1.099L39,39.824c3.572-0.275,7.143-0.275,10.99-0.275 c9.616,0,20.056,0.275,30.771,1.099c25.826,1.374,41.211,1.923,45.607,1.923c15.66,0,31.045-0.275,46.156-0.824 c14.836-0.55,28.298-1.099,40.112-1.374c11.539,0,19.507-0.274,23.628-0.549l-0.275,3.846l0.549,17.583v2.473 c-10.989,1.648-22.254,2.473-34.067,2.473c-10.99,0-18.133,2.198-21.705,6.869c-2.473,2.747-3.572,14.836-3.572,36.266 c0,6.594,0.275,11.813,0.275,15.935l0.275,62.916l3.846,76.927c1.099,22.254,5.495,40.662,14.012,55.498 c6.319,10.715,15.111,19.231,26.375,25.275c16.484,8.792,32.694,12.913,48.629,12.913c18.683,0,36.266-2.473,52.476-7.692 c9.615-3.022,18.682-7.418,27.199-14.012c8.517-6.319,14.561-12.089,17.857-17.584c7.144-10.989,11.814-21.704,14.562-31.32 c3.847-13.462,5.77-34.342,5.77-62.915c0-49.178-3.571-50.552-7.692-112.643l-1.1-16.21c-0.824-11.813-2.747-20.056-6.594-24.177 c-6.044-6.319-13.188-9.616-21.154-9.341l-27.475,0.549l-3.846-0.824L321.157,39h23.078l56.322,2.748 c18.682,0.824,36.54-0.824,53.849-2.748l4.945,0.549C460.45,46.418,461,51.088,461,53.561s-0.55,5.22-1.099,8.517 c-7.418,1.923-15.111,3.297-23.078,3.572c-12.913,1.923-20.331,3.297-21.705,4.67c-2.473,2.473-4.121,6.044-4.121,11.264 c0,3.572,0.55,9.066,0.824,15.935c0,0,2.198,4.945,6.045,108.797c1.373,41.486-1.374,69.509-4.121,83.521 c-2.748,14.012-6.594,25.276-11.265,33.519c-7.144,12.089-17.583,23.353-30.771,33.793c-13.463,10.165-29.947,18.407-50.003,24.452 c-20.056,6.044-43.409,9.066-70.059,9.066c-30.221,0-56.322-4.121-78.026-12.639c-21.705-8.517-38.189-19.781-49.179-33.518 c-10.989-13.737-18.682-31.596-22.803-53.574c-3.022-15.111-4.396-36.815-4.396-65.114v-91.488c0-34.617-1.648-54.124-4.67-58.52 C88.178,69.496,74.716,65.65,52.188,65.1z M461,452.208v-17.583c0-4.945-3.847-8.792-8.792-8.792H47.792 c-4.945,0-8.792,3.847-8.792,8.792v17.583c0,4.945,3.846,8.792,8.792,8.792h404.417C457.153,461,461,457.153,461,452.208z"/>
	</svg>

	<svg id="icon-undo" viewBox="0 0 500 500">
		<path fill="#333" d="M474,314c0,35-17.5,80.75-31.75,112.75c-2.75,5.75-5.5,13.75-9.25,19c-1.75,2.5-3.5,4.25-7,4.25 c-5,0-8-4-8-8.75c0-4,1-8.5,1.25-12.5c0.75-10.25,1.25-20.5,1.25-30.75c0-119.25-70.75-140-178.5-140h-56v64c0,8.75-7.25,16-16,16 c-4.25,0-8.25-1.75-11.25-4.75l-128-128c-3-3-4.75-7-4.75-11.25s1.75-8.25,4.75-11.25l128-128c3-3,7-4.75,11.25-4.75 c8.75,0,16,7.25,16,16v64h56c82,0,184,14.5,218.75,100.75C471.25,257.25,474,286,474,314z"/>
	</svg>

	<svg id="icon-redo" viewBox="0 0 500 500">
		<path fill="#333" d="M474,194c0,4.25-1.75,8.25-4.75,11.25l-128,128c-3,3-7,4.75-11.25,4.75c-8.75,0-16-7.25-16-16v-64h-56 c-107.75,0-178.5,20.75-178.5,140c0,10.25,0.5,20.5,1.25,30.75c0.25,4,1.25,8.5,1.25,12.5c0,4.75-3,8.75-8,8.75 c-3.5,0-5.25-1.75-7-4.25c-3.75-5.25-6.5-13.25-9.25-19C43.5,394.75,26,349,26,314c0-28,2.75-56.75,13.25-83.25 C74,144.5,176,130,258,130h56V66c0-8.75,7.25-16,16-16c4.25,0,8.25,1.75,11.25,4.75l128,128C472.25,185.75,474,189.75,474,194z"/>
	</svg>

	<svg id="icon-justify-left" viewBox="0 0 512 512">
		<path fill="#333" d="M0,32h382v64H0V32z M0,158h442v64H0V158z M0,286h462v64H0V286z M0,416h352v64H0V416z"/>
	</svg>

	<svg id="icon-justify-center" viewBox="0 0 512 512">
		<path fill="#333" d="M76,32h362v64H76V32z M22,158h470v64H22V158z M31,286h452v64H31V286z M90,416h332v64H90V416z"/>
	</svg>

	<svg id="icon-justify-right" viewBox="0 0 512 512">
		<path fill="#333" d="M150,32h362v64H150V32z M80,158h432v64H80V158z M60,286h452v64H60V286z M180,416h332v64H180V416z"/>
	</svg>

	<svg id="icon-justify-full" viewBox="0 0 512 512">
		<path fill="#333" d="M0,32h512v64H0V32z M0,158h512v64H0V158z M0,286h512v64H0V286z M0,416h512v64H0V416z"/>
	</svg>
</svg>