<svg xmlns="http://www.w3.org/2000/svg" width="0" height="0">

	<svg id="icon-undo" viewBox="0 0 500 500">
		<path fill="#333" d="M474,314c0,35-17.5,80.75-31.75,112.75c-2.75,5.75-5.5,13.75-9.25,19c-1.75,2.5-3.5,4.25-7,4.25 c-5,0-8-4-8-8.75c0-4,1-8.5,1.25-12.5c0.75-10.25,1.25-20.5,1.25-30.75c0-119.25-70.75-140-178.5-140h-56v64c0,8.75-7.25,16-16,16 c-4.25,0-8.25-1.75-11.25-4.75l-128-128c-3-3-4.75-7-4.75-11.25s1.75-8.25,4.75-11.25l128-128c3-3,7-4.75,11.25-4.75 c8.75,0,16,7.25,16,16v64h56c82,0,184,14.5,218.75,100.75C471.25,257.25,474,286,474,314z"/>
	</svg>

	<svg id="icon-redo" viewBox="0 0 500 500">
		<path fill="#333" d="M474,194c0,4.25-1.75,8.25-4.75,11.25l-128,128c-3,3-7,4.75-11.25,4.75c-8.75,0-16-7.25-16-16v-64h-56 c-107.75,0-178.5,20.75-178.5,140c0,10.25,0.5,20.5,1.25,30.75c0.25,4,1.25,8.5,1.25,12.5c0,4.75-3,8.75-8,8.75 c-3.5,0-5.25-1.75-7-4.25c-3.75-5.25-6.5-13.25-9.25-19C43.5,394.75,26,349,26,314c0-28,2.75-56.75,13.25-83.25 C74,144.5,176,130,258,130h56V66c0-8.75,7.25-16,16-16c4.25,0,8.25,1.75,11.25,4.75l128,128C472.25,185.75,474,189.75,474,194z"/>
	</svg>
	
	<svg id="icon-bold" viewBox="0 0 500 500">
		<style type="text/css">
			.st0{fill:#111;}
		</style>
		<path class="st0" d="M277.9,464.7H74.2v-35.1L81,429c4.5-0.4,11.3-1.2,20-2.4c10.2-1.4,15-2.9,17.2-3.9c4.5-2,7.6-4.6,9.4-7.7
			c1.9-3.4,2.9-8.2,2.9-14V103c0-5.5-0.9-10.4-2.7-14.5c-1.5-3.3-4.7-6.2-9.6-8.5l-0.2-0.1c-5.2-2.6-11.2-4.7-17.8-6.1
			c-6.8-1.5-12.6-2.4-17.1-2.8l-6.9-0.6V35.3H275c15.3,0,30.1,1.5,44.1,4.5c14.3,3.1,28.1,8.6,41,16.4c12.4,7.4,22.8,17.5,30.8,30.1
			c8.1,12.8,12.3,28.5,12.3,46.6c0,15.6-2.9,29.8-8.6,42.1c-5.7,12.3-13.8,23-24.1,31.9c-9.4,8.2-20.4,15.2-32.5,20.8
			c-4.5,2.1-9.1,4-13.8,5.7c4.9,1.2,10,2.7,15.2,4.3c15.4,4.8,29.3,11.6,41.3,20.1c12.9,8.7,23.7,20.3,32.2,34.4
			c8.7,14.4,13,31.9,13,52.1c0,20.5-4.6,38.7-13.6,54c-8.9,15.1-20.7,27.7-34.9,37.4c-13.6,9.4-29.3,16.6-46.4,21.5
			C313.8,462.2,296,464.7,277.9,464.7z M207.7,258.2V397c0,9.7,3.6,16.5,11.4,21.4c8.7,5.4,21.3,8.2,37.5,8.2c27,0,47-7.5,61-22.9
			c14-15.4,21.1-38.9,21.1-69.7c0-22.6-7.3-40.6-22.4-55c-14.9-14.3-36.9-21.6-65.3-21.6c-12.3,0-22.8,0.1-31.3,0.4
			C215.2,257.9,211.2,258.1,207.7,258.2z M207.7,218.7h29.5c15,0,27.9-1.9,38.4-5.7c10.1-3.6,18.3-9.1,24.4-16.2l0,0
			c6.4-7.5,11-15.8,13.5-24.7c2.6-9.2,3.9-20.5,3.9-33.4c0-20.7-5.6-37-16.6-48.5c-10.9-11.4-28.9-17.1-53.4-17.1
			c-6.1,0-13.9,0.1-23.2,0.4l-3.6,0.1c-4.7,0.1-9,0.3-12.9,0.4V218.7z"/>
	</svg>

	<svg id="icon-italic" viewBox="0 0 500 500">
		<style type="text/css">
			.st0{fill:#111;}
		</style>
		<path class="st0" d="M299.8,463.2H101.7l6.6-29.1l3.7-0.3c5.4-0.4,13.3-1,23.4-1.8c12-0.9,17.7-2.3,20.4-3.2c6.7-2.4,11.8-5.7,15.2-9.8
			c3.4-4.1,5.7-9.3,6.9-15.3l0-0.1l70.4-304.6c0.3-1.5,0.6-3.1,0.8-4.7c0.2-1.6,0.3-3.2,0.3-4.7c0-3.1-0.6-5.6-1.8-7.8
			c-0.8-1.4-2.8-3.5-8.1-5.8c-5-2.2-11.9-4.3-20.6-6.3c-8.8-2-15.4-3.2-19.5-3.6l-5.7-0.5l6.6-28.8h198L391.6,66l-3.9,0.1
			c-5.8,0.2-13.6,1.1-23.1,2.6c-9.5,1.5-16.6,3-21.1,4.3c-7,2.2-12,5.4-14.8,9.7c-3.2,4.8-5.5,10.1-6.9,15.9l-70.7,304.4l0,0.1
			c-0.3,1.1-0.5,2.3-0.7,3.7c-0.2,1.6-0.3,3-0.3,4.2c0,3.5,0.7,6.5,2.2,8.8c1.4,2.3,4.3,4.4,8.4,6.3c1.5,0.7,5.7,2.1,18.2,4.5
			c9.8,1.8,17.1,2.9,21.8,3.3l5.8,0.5L299.8,463.2z"/>
	</svg>

	<svg id="icon-underline" viewBox="0 0 500 500">
		<style type="text/css">
			.st0{fill:#111;}
		</style>
		<path class="st0" d="M247,394.5c-20.9,0-39.8-2.8-56.2-8.3c-16.5-5.5-30.6-13.1-41.8-22.6c-11.2-9.6-19.8-20.6-25.5-33
			c-5.7-12.3-8.6-25.4-8.6-38.8V91c0-4.8-0.8-8.8-2.2-11.8c-1.4-2.8-4.4-5.6-9.1-8.3c-3.5-2-8.2-3.6-13.9-4.8
			c-6-1.3-10.9-2.1-14.7-2.4l-4.6-0.4V36.6h151.5v26.8l-4.8,0.2c-4.2,0.2-9.6,0.8-16.1,2.1c-6.5,1.2-11.3,2.4-14.2,3.4
			c-4,1.4-6.6,3.6-7.9,6.7c-1.6,3.8-2.4,8.1-2.4,12.7v187.5c0,8.7,1,18,2.9,27.6c1.9,9.3,5.6,18,11.1,26c5.7,8,13.6,14.7,23.6,19.9
			c9.9,5.2,24,7.8,41.7,7.8c16.7,0,30.9-2.7,42-7.9c11.1-5.2,19.9-12.1,26.3-20.5c6.1-8.1,10.5-16.6,13.1-25.4
			c2.6-8.9,3.9-18,3.9-27.1V137.3c0-17.2-1.2-31.5-3.7-42.3c-2.8-12.4-6.6-17.3-9.3-19.2c-5-3.6-12.1-6.5-21.1-8.5
			c-9.3-2.2-16.5-3.4-21.3-3.7l-4.7-0.3V36.6h148.9v26.8l-4.8,0.2c-4.2,0.2-10.5,1.1-18.8,2.8c-7.9,1.6-14.4,4-19.3,7.2
			c-4.2,2.8-7.3,9.6-9.1,19.5c-2,11.1-3,25-3,41.2V282c0,19.6-4.2,36.9-12.4,51.5c-8.2,14.5-19,26.6-32.4,35.9
			c-13.1,8.9-27,15.4-41.4,19.3C274.1,392.6,260.1,394.5,247,394.5z"/>
		<rect class="st0" x="43" y="450" width="413" height="40"/>
	</svg>

	<svg id="icon-justify-left" viewBox="0 0 500 500">
		<style type="text/css">
			.st0{fill:none;stroke:#111;stroke-width:50;}
		</style>
		<line class="st0" x1="1.5" y1="62.5" x2="373.5" y2="62.5"/>
		<line class="st0" x1="1.5" y1="187.5" x2="432.5" y2="187.5"/>
		<line class="st0" x1="1.5" y1="312.5" x2="449.5" y2="312.5"/>
		<line class="st0" x1="1.5" y1="437.5" x2="342.5" y2="437.5"/>
	</svg>

	<svg id="icon-justify-center" viewBox="0 0 500 500">
		<style type="text/css">
			.st0{fill:none;stroke:#111;stroke-width:50;}
		</style>
		<line class="st0" x1="74" y1="62.5" x2="426" y2="62.5"/>
		<line class="st0" x1="21.5" y1="187.5" x2="479.5" y2="187.5"/>
		<line class="st0" x1="30" y1="312.5" x2="470" y2="312.5"/>
		<line class="st0" x1="88.5" y1="437.5" x2="411.5" y2="437.5"/>
	</svg>

	<svg id="icon-justify-right" viewBox="0 0 500 500">
		<style type="text/css">
			.st0{fill:none;stroke:#111;stroke-width:50;}
		</style>
		<line class="st0" x1="148" y1="62.5" x2="500" y2="62.5"/>
		<line class="st0" x1="79" y1="187.5" x2="500" y2="187.5"/>
		<line class="st0" x1="60" y1="312.5" x2="500" y2="312.5"/>
		<line class="st0" x1="177" y1="437.5" x2="500" y2="437.5"/>
	</svg>

	<svg id="icon-justify-full" viewBox="0 0 500 500">
		<style type="text/css">
			.st0{fill:none;stroke:#111;stroke-width:50;}
		</style>
		<line class="st0" x1="0" y1="62.5" x2="500" y2="62.5"/>
		<line class="st0" x1="0" y1="187.5" x2="500" y2="187.5"/>
		<line class="st0" x1="0" y1="312.5" x2="500" y2="312.5"/>
		<line class="st0" x1="0" y1="437.5" x2="500" y2="437.5"/>
	</svg>
</svg>
