<svg xmlns="http://www.w3.org/2000/svg" width="0" height="0">

	<svg id="icon-undo" viewBox="0 0 13 13">
		<path fill="#333" d="M6.5,1.9C5,1.9,3.6,2.5,2.6,3.5L1,1.9V6h4.1L3.6,4.5c0.7-0.7,1.8-1.2,2.9-1.2c2.3,0,4.1,1.8,4.1,4.1c0,1.2-0.5,2.3-1.4,3.1 l0.9,1c1.1-1,1.9-2.5,1.9-4.1C12,4.3,9.5,1.9,6.5,1.9z"/>
	</svg>

	<svg id="icon-redo" viewBox="0 0 13 13">
		<path fill="#333" d="M1,7.4c0,1.6,0.7,3.1,1.8,4.1l0.9-1C2.9,9.7,2.4,8.6,2.4,7.4c0-2.3,1.8-4.1,4.1-4.1c1.1,0,2.2,0.5,2.9,1.2L7.9,6H12V1.9 l-1.6,1.6c-1-1-2.4-1.6-3.9-1.6C3.5,1.9,1,4.4,1,7.4z"/>
	</svg>
	
	<svg id="icon-bold" viewBox="0 0 13 13">
		<style type="text/css">
			.st0{fill:#333;}
		</style>
		<path class="st0" d="M7.2,12H2v-0.9l0.2,0c0.1,0,0.3,0,0.5-0.1c0.3,0,0.4-0.1,0.4-0.1c0.1-0.1,0.2-0.1,0.2-0.2c0-0.1,0.1-0.2,0.1-0.4V2.7
			c0-0.1,0-0.3-0.1-0.4c0-0.1-0.1-0.2-0.2-0.2l0,0C3,2.1,2.8,2,2.7,2c-0.2,0-0.3-0.1-0.4-0.1L2,1.9V1h5.1c0.4,0,0.8,0,1.1,0.1
			C8.6,1.2,9,1.3,9.3,1.5C9.6,1.7,9.9,2,10.1,2.3c0.2,0.3,0.3,0.7,0.3,1.2c0,0.4-0.1,0.8-0.2,1.1c-0.1,0.3-0.4,0.6-0.6,0.8
			C9.3,5.6,9.1,5.8,8.8,5.9C8.6,6,8.5,6,8.4,6.1c0.1,0,0.3,0.1,0.4,0.1c0.4,0.1,0.8,0.3,1.1,0.5c0.3,0.2,0.6,0.5,0.8,0.9
			C10.9,8,11,8.4,11,8.9c0,0.5-0.1,1-0.3,1.4c-0.2,0.4-0.5,0.7-0.9,1c-0.3,0.2-0.8,0.4-1.2,0.6C8.1,11.9,7.7,12,7.2,12z M5.4,6.7v3.6
			c0,0.2,0.1,0.4,0.3,0.5C5.9,11,6.3,11,6.7,11c0.7,0,1.2-0.2,1.6-0.6c0.4-0.4,0.5-1,0.5-1.8c0-0.6-0.2-1-0.6-1.4
			C7.8,6.9,7.3,6.7,6.5,6.7c-0.3,0-0.6,0-0.8,0C5.6,6.7,5.5,6.7,5.4,6.7z M5.4,5.7h0.8c0.4,0,0.7,0,1-0.1c0.3-0.1,0.5-0.2,0.6-0.4l0,0
			c0.2-0.2,0.3-0.4,0.3-0.6C8.2,4.3,8.2,4,8.2,3.6c0-0.5-0.1-0.9-0.4-1.2C7.5,2.1,7.1,2,6.4,2C6.3,2,6.1,2,5.8,2L5.7,2
			C5.6,2,5.5,2,5.4,2V5.7z"/>
	</svg>

	<svg id="icon-italic" viewBox="0 0 13 13">
		<style type="text/css">
			.st0{fill:#333;}
		</style>
		<path class="st0" d="M7.8,12H2.7l0.2-0.7l0.1,0c0.1,0,0.3,0,0.6,0c0.3,0,0.5-0.1,0.5-0.1c0.2-0.1,0.3-0.1,0.4-0.3c0.1-0.1,0.1-0.2,0.2-0.4v0
			l1.8-7.8c0,0,0-0.1,0-0.1c0,0,0-0.1,0-0.1c0-0.1,0-0.1,0-0.2c0,0-0.1-0.1-0.2-0.1C6.1,2,5.9,1.9,5.7,1.9C5.5,1.8,5.3,1.8,5.2,1.8
			l-0.1,0L5.2,1h5.1l-0.2,0.8l-0.1,0c-0.1,0-0.3,0-0.6,0.1C9.2,1.9,9,1.9,8.9,2C8.7,2,8.6,2.1,8.5,2.2C8.4,2.3,8.4,2.5,8.3,2.6
			l-1.8,7.8v0c0,0,0,0.1,0,0.1c0,0,0,0.1,0,0.1c0,0.1,0,0.2,0.1,0.2c0,0.1,0.1,0.1,0.2,0.2c0,0,0.1,0.1,0.5,0.1c0.3,0,0.4,0.1,0.6,0.1
			l0.1,0L7.8,12z"/>
	</svg>

	<svg id="icon-underline" viewBox="0 0 13 13">
		<style type="text/css">
			.st0{fill:#333;}
		</style>
		<path class="st0" d="M6.4,9.7c-0.5,0-1-0.1-1.4-0.2c-0.4-0.1-0.7-0.3-1-0.5C3.8,8.7,3.6,8.4,3.5,8.1C3.3,7.8,3.2,7.5,3.2,7.2V2.3
			c0-0.1,0-0.2-0.1-0.3C3.2,2,3.1,1.9,3,1.8c-0.1,0-0.2-0.1-0.3-0.1c-0.1,0-0.3-0.1-0.4-0.1l-0.1,0V1h3.7v0.6l-0.1,0
			c-0.1,0-0.2,0-0.4,0.1C5.2,1.8,5.1,1.8,5,1.8C4.9,1.8,4.8,1.9,4.8,2c0,0.1-0.1,0.2-0.1,0.3v4.5c0,0.2,0,0.4,0.1,0.7
			c0,0.2,0.1,0.4,0.3,0.6c0.1,0.2,0.3,0.4,0.6,0.5c0.2,0.1,0.6,0.2,1,0.2c0.4,0,0.7-0.1,1-0.2c0.3-0.1,0.5-0.3,0.6-0.5
			c0.1-0.2,0.3-0.4,0.3-0.6C8.7,7.3,8.7,7,8.7,6.8V3.5c0-0.4,0-0.8-0.1-1C8.6,2.1,8.5,2,8.4,2C8.3,1.9,8.1,1.8,7.9,1.8
			C7.7,1.7,7.5,1.7,7.4,1.7l-0.1,0V1h3.6v0.6l-0.1,0c-0.1,0-0.3,0-0.5,0.1c-0.2,0-0.3,0.1-0.5,0.2C9.7,2,9.6,2.1,9.6,2.4
			c0,0.3-0.1,0.6-0.1,1V7c0,0.5-0.1,0.9-0.3,1.2C9,8.5,8.8,8.8,8.4,9.1c-0.3,0.2-0.7,0.4-1,0.5C7.1,9.6,6.8,9.7,6.4,9.7z"/>
		<rect class="st0" x="2" y="11" width="9" height="1"/>
	</svg>

	<svg id="icon-justify-left" viewBox="0 0 13 13">
		<style type="text/css">
			.st0{fill:#333;}
		</style>
		<rect x="1" y="2" class="st0" width="11" height="1"/>
		<rect x="1" y="4" class="st0" width="8" height="1"/>
		<rect x="1" y="6" class="st0" width="10" height="1"/>
		<rect x="1" y="8" class="st0" width="8" height="1"/>
		<rect x="1" y="10" class="st0" width="11" height="1"/>
	</svg>

	<svg id="icon-justify-center" viewBox="0 0 13 13">
		<style type="text/css">
			.st0{fill:#333;}
		</style>
		<rect x="1" y="2" class="st0" width="11" height="1"/>
		<rect x="3" y="4" class="st0" width="7" height="1"/>
		<rect x="2" y="6" class="st0" width="9" height="1"/>
		<rect x="3" y="8" class="st0" width="7" height="1"/>
		<rect x="1" y="10" class="st0" width="11" height="1"/>
	</svg>

	<svg id="icon-justify-right" viewBox="0 0 13 13">
		<style type="text/css">
			.st0{fill:#333;}
		</style>
		<rect x="1" y="2" class="st0" width="11" height="1"/>
		<rect x="4" y="4" class="st0" width="8" height="1"/>
		<rect x="2" y="6" class="st0" width="10" height="1"/>
		<rect x="4" y="8" class="st0" width="8" height="1"/>
		<rect x="1" y="10" class="st0" width="11" height="1"/>
	</svg>

	<svg id="icon-justify-full" viewBox="0 0 13 13">
		<style type="text/css">
			.st0{fill:#333;}
		</style>
		<rect x="1" y="2" class="st0" width="11" height="1"/>
		<rect x="1" y="4" class="st0" width="11" height="1"/>
		<rect x="1" y="6" class="st0" width="11" height="1"/>
		<rect x="1" y="8" class="st0" width="11" height="1"/>
		<rect x="1" y="10" class="st0" width="11" height="1"/>
	</svg>

	<svg id="icon-cogs" viewBox="0 0 13 13">
		<style type="text/css">
			.st0{fill:#333;}
		</style>
		<path class="st0" d="M10.6,7c0-0.2,0-0.3,0-0.5c0-0.2,0-0.4,0-0.5l1.2-0.9c0.1-0.1,0.1-0.2,0.1-0.3l-1.1-1.9c-0.1-0.1-0.2-0.2-0.3-0.1L9,3.2 C8.7,3,8.4,2.8,8.1,2.7L7.9,1.2C7.8,1.1,7.7,1,7.6,1H5.4C5.3,1,5.2,1.1,5.1,1.2L4.9,2.7C4.6,2.8,4.3,3,4,3.2L2.6,2.7 c-0.1,0-0.3,0-0.3,0.1L1.2,4.7C1.1,4.8,1.2,5,1.3,5.1L2.4,6c0,0.2-0.1,0.4-0.1,0.5s0,0.4,0,0.5L1.3,7.9C1.2,8,1.1,8.2,1.2,8.3 l1.1,1.9c0.1,0.1,0.2,0.2,0.3,0.1L4,9.8c0.3,0.2,0.6,0.4,0.9,0.5l0.2,1.5c0,0.1,0.1,0.2,0.3,0.2h2.2c0.1,0,0.3-0.1,0.3-0.2l0.2-1.5 C8.4,10.2,8.7,10,9,9.8l1.4,0.5c0.1,0,0.3,0,0.3-0.1l1.1-1.9c0.1-0.1,0-0.3-0.1-0.3L10.6,7z M6.5,8.9c-1.3,0-2.4-1.1-2.4-2.4 s1.1-2.4,2.4-2.4s2.4,1.1,2.4,2.4S7.8,8.9,6.5,8.9z"/>
	</svg>

	<svg id="icon-folder-open" viewBox="0 0 17 17">
		<path fill="#333" d="M16,9.5c0,0.2-0.1,0.4-0.2,0.5L13.1,13c-0.5,0.5-1.4,1-2.1,1H2.3c-0.3,0-0.7-0.1-0.7-0.4c0-0.2,0.1-0.4,0.2-0.5L4.5,10
			C5,9.4,5.9,9,6.6,9h8.7C15.6,9,16,9.1,16,9.5z M13.2,6.4V8H6.6c-1,0-2.2,0.6-2.9,1.3L1,12.4c0-0.1,0-0.1,0-0.2l0-7.7
			C1,3.5,1.3,3,2.3,3h3.5c1,0,1.4,0.3,1.4,1.3V5h4.7C12.8,5,13.2,5.4,13.2,6.4z"/>
	</svg>

	<svg id="icon-clipboard" viewBox="0 0 17 17">
		<path fill="#333" d="M14.6,2.9h-4.2c0-1-0.8-1.9-1.9-1.9S6.6,1.8,6.6,2.9H2.4c-0.3,0-0.5,0.2-0.5,0.5v12.2c0,0.3,0.2,0.5,0.5,0.5h12.2
			c0.3,0,0.5-0.2,0.5-0.5V3.3C15.1,3.1,14.9,2.9,14.6,2.9z M8.5,1.9c0.5,0,0.9,0.4,0.9,0.9S9,3.8,8.5,3.8S7.6,3.4,7.6,2.9
			S8,1.9,8.5,1.9z M14,15H3V4h1.7v1.5C4.7,5.8,5,6,5.2,6h6.6c0.3,0,0.5-0.2,0.5-0.5V4H14V15z"/>
		<path fill="#333" d="M7.6,13.6l-3-3.5l0.9-0.9l2.2,1.7l4-3.6l0.9,0.9L7.6,13.6z"/>
	</svg>
</svg>
